Coordinates
version=1
nRows=9
nColumns=63
inDegrees=yes

Units are S.I. units (second, meters, Newtons, ...)
If the header above contains a line with 'inDegrees', this indicates whether rotational values are in degrees (yes) or radians (no).

endheader
time	pelvis_tilt	pelvis_list	pelvis_rotation	pelvis_tx	pelvis_ty	pelvis_tz	hip_flexion_r	hip_adduction_r	hip_rotation_r	knee_angle_r	knee_angle_r_beta	ankle_angle_r	subtalar_angle_r	mtp_angle_r	hip_flexion_l	hip_adduction_l	hip_rotation_l	knee_angle_l	knee_angle_l_beta	ankle_angle_l	subtalar_angle_l	mtp_angle_l	L5_S1_Flex_Ext	L5_S1_Lat_Bending	L5_S1_axial_rotation	L4_L5_Flex_Ext	L4_L5_Lat_Bending	L4_L5_axial_rotation	L3_L4_Flex_Ext	L3_L4_Lat_Bending	L3_L4_axial_rotation	L2_L3_Flex_Ext	L2_L3_Lat_Bending	L2_L3_axial_rotation	L1_L2_Flex_Ext	L1_L2_Lat_Bending	L1_L2_axial_rotation	L1_T12_Flex_Ext	L1_T12_Lat_Bending	L1_T12_axial_rotation	Abs_r3	Abs_r2	Abs_r1	Abs_t1	Abs_t2	neck_flexion	neck_bending	neck_rotation	arm_flex_r	arm_add_r	arm_rot_r	elbow_flex_r	pro_sup_r	wrist_flex_r	wrist_dev_r	arm_flex_l	arm_add_l	arm_rot_l	elbow_flex_l	pro_sup_l	wrist_flex_l	wrist_dev_l
0.701754	-1.294484	-6.649127	92.829290	0.187543	0.744894	0.784904	6.972402	-2.734882	-9.351202	8.076634	0.140964	28.390039	15.410242	0.000000	6.721227	1.869390	-6.202007	6.358660	0.110980	24.999057	7.474456	0.000000	0.024003	-0.650953	-0.436472	0.044577	-0.865768	-0.463752	0.039435	-1.582728	-0.463752	0.027434	-1.582728	-0.381913	0.022290	-1.327424	-0.354634	0.013716	-1.008327	-0.327354	0.171454	-7.363713	-2.427529	0.000000	0.000000	6.966417	13.852617	-9.295074	49.527852	-28.972102	23.074553	93.109474	76.317190	-7.150974	25.940508	36.044670	-14.214710	10.694850	92.923732	65.448667	-5.079956	20.500957
0.719298	-1.292197	-7.125112	92.359522	0.188192	0.744424	0.785370	7.662099	-2.705825	-8.919147	8.246694	0.143932	28.284937	15.375902	0.000000	7.231543	1.871163	-6.400855	6.317181	0.110256	24.900997	6.953187	0.000000	0.025859	-0.673808	-0.350571	0.048023	-0.896165	-0.372481	0.042484	-1.638297	-0.372481	0.029554	-1.638297	-0.306749	0.024013	-1.374030	-0.284839	0.014776	-1.043729	-0.262928	0.184709	-7.622253	-1.949769	0.000000	0.000000	6.814901	13.510733	-10.251855	50.879190	-31.051937	25.440625	95.701268	75.711975	-4.338772	26.651691	36.142032	-14.111912	11.022016	94.014946	66.218776	-5.055816	21.389662
0.736842	-1.243516	-7.646049	91.915153	0.188718	0.743808	0.785700	8.389102	-2.632397	-8.472736	8.402620	0.146653	28.213597	15.345633	0.000000	7.781606	1.835084	-6.535748	6.279799	0.109603	24.817516	6.388320	0.000000	0.030422	-0.690046	-0.269403	0.056497	-0.917761	-0.286241	0.049980	-1.677777	-0.286241	0.034769	-1.677777	-0.235728	0.028250	-1.407141	-0.218890	0.017383	-1.068881	-0.202053	0.217301	-7.805937	-1.498341	0.000000	0.000000	7.059408	13.176113	-11.294551	51.930882	-33.128972	27.556531	99.304688	75.303617	-1.213640	27.421766	36.039048	-13.962667	11.345959	95.378486	66.252507	-5.247126	22.224029
0.754386	-1.157189	-8.192366	91.515474	0.189097	0.743095	0.785865	9.122783	-2.524787	-8.035906	8.532098	0.148913	28.177175	15.327092	0.000000	8.345351	1.771345	-6.588661	6.239583	0.108901	24.738170	5.778212	0.000000	0.036539	-0.701250	-0.196294	0.067857	-0.932662	-0.208563	0.060031	-1.705019	-0.208563	0.041761	-1.705019	-0.171758	0.033931	-1.429988	-0.159489	0.020879	-1.086236	-0.147221	0.260997	-7.932677	-1.091730	0.000000	0.000000	7.635750	12.875924	-12.409699	52.712072	-35.131767	29.209546	103.789727	75.519479	1.882105	27.905708	35.796007	-13.747528	11.612430	96.966442	65.677429	-5.690495	22.972690
0.771930	-1.034711	-8.753374	91.171166	0.189339	0.742322	0.785853	9.844125	-2.382009	-7.614481	8.628099	0.150589	28.159711	15.303069	0.000000	8.917629	1.668156	-6.717753	6.210110	0.108387	24.697130	5.352235	0.000000	0.044084	-0.708047	-0.125656	0.081868	-0.941702	-0.133509	0.072425	-1.721545	-0.133509	0.050383	-1.721545	-0.109949	0.040936	-1.443849	-0.102095	0.025190	-1.096764	-0.094242	0.314887	-8.009566	-0.698860	0.000000	0.000000	8.473982	12.619671	-13.588481	53.282107	-37.036061	30.181776	108.951225	76.433389	4.829373	27.984430	35.483175	-13.445057	11.857801	98.684786	64.655894	-6.346029	23.547211
0.789474	-0.892620	-9.316270	90.904596	0.189445	0.741510	0.785659	10.534122	-2.223869	-7.265064	8.699988	0.151843	28.161846	15.298043	0.000000	9.484070	1.548396	-6.785572	6.187125	0.107986	24.671716	4.958878	0.000000	0.052523	-0.713156	-0.054454	0.097540	-0.948497	-0.057857	0.086290	-1.733967	-0.057857	0.060028	-1.733967	-0.047647	0.048773	-1.454267	-0.044244	0.030012	-1.104678	-0.040840	0.375166	-8.067362	-0.302855	0.000000	0.000000	9.486081	12.403613	-14.861678	53.676368	-38.834539	30.285189	114.561632	77.869061	7.549221	27.706069	35.161283	-13.041843	12.150227	100.457983	63.257389	-7.191317	23.960383
0.807018	-0.748587	-9.882978	90.698367	0.189477	0.740655	0.785312	11.196134	-2.064271	-6.943664	8.754995	0.152803	28.166528	15.260965	0.000000	10.042510	1.425705	-6.830155	6.157998	0.107477	24.659218	4.631977	0.000000	0.061811	-0.721102	0.038768	0.114789	-0.959066	0.041191	0.101549	-1.753288	0.041191	0.070644	-1.753288	0.033922	0.057398	-1.470472	0.031499	0.035319	-1.116987	0.029076	0.441509	-8.157253	0.215616	0.000000	0.000000	10.643459	12.189949	-16.474642	53.866171	-40.651076	29.433688	120.438967	79.345030	9.573678	27.083731	34.930401	-12.485177	12.622203	102.190941	61.746681	-8.192459	24.260114
0.824561	-0.623455	-10.448213	90.584256	0.189456	0.739772	0.784822	11.813618	-1.928933	-6.699419	8.789759	0.153410	28.169286	15.202200	0.000000	10.596097	1.317984	-6.906567	6.133764	0.107054	24.672976	4.503183	0.000000	0.074247	-0.734162	0.143879	0.137885	-0.976436	0.152871	0.121981	-1.785042	0.152871	0.084857	-1.785042	0.125894	0.068946	-1.497104	0.116901	0.042425	-1.137217	0.107909	0.530342	-8.304991	0.800209	0.000000	0.000000	11.820354	12.013214	-18.301992	53.941311	-42.403387	27.600274	126.290669	80.483982	11.173669	26.321288	34.812925	-11.832098	13.296617	103.855940	60.261674	-9.225798	24.594433
0.842105	-0.526556	-11.003450	90.544085	0.189434	0.738859	0.784228	12.386548	-1.826513	-6.526834	8.816225	0.153872	28.177764	15.125445	0.000000	11.135865	1.234540	-6.980476	6.108151	0.106607	24.703589	4.514919	0.000000	0.088753	-0.753962	0.268605	0.164823	-1.002770	0.285393	0.145812	-1.833184	0.285393	0.101436	-1.833184	0.235030	0.082416	-1.537480	0.218242	0.050713	-1.167888	0.201454	0.633953	-8.528974	1.493902	0.000000	0.000000	12.968999	11.835089	-20.413273	53.882456	-44.168962	24.877467	131.885053	80.760718	12.043739	25.427537	34.867967	-11.100126	14.246434	105.413796	58.459279	-10.326101	24.992304
